<svg width="24" height="24" viewBox="0 0 24 24" fill="none" xmlns="http://www.w3.org/2000/svg">
<path d="M22.2407 12.5406C22.68 12.544 23.8259 12.1867 23.8216 11.7522C23.8174 11.3176 22.6577 10.9629 22.2184 10.9595C22.1866 10.9579 22.148 10.9685 22.1037 10.96L21.3376 11.0155L19.7905 8.20512C19.7312 8.07622 19.7084 7.99953 19.5937 8L19.1987 8.00513C18.9376 8.00446 18.974 8.05667 19.0072 8.20313L19.641 10.7154L19.652 11.1377L19.2627 11.162C18.7916 11.1569 18.2151 11.2536 17.7522 11.3811L17.0419 10.3631C16.9326 10.2065 16.953 10.1698 16.8383 10.1703C16.5897 10.1765 16.6272 10.1973 16.6468 10.3683L16.8614 11.5436C16.8661 11.5942 16.8832 11.6518 16.9332 11.6795C16.9003 11.7093 16.8743 11.7268 16.88 11.746C16.8732 11.7583 16.8982 11.7721 16.9039 11.7913C16.871 11.8211 16.8564 11.877 16.861 11.9276L16.6805 13.1081C16.6684 13.2775 16.623 13.3003 16.8841 13.301C16.9988 13.3005 16.9681 13.2675 17.0756 13.103L17.74 12.1107C18.2136 12.2292 18.8019 12.3471 19.2798 12.3399L19.6737 12.3662L19.6848 12.7885L19.1277 15.297C19.0974 15.4402 19.0702 15.4892 19.3313 15.4898L19.7263 15.4847C19.841 15.4842 19.8692 15.4039 19.9178 15.2867L21.3642 12.4709L22.1329 12.5288C22.1771 12.5374 22.2089 12.539 22.2407 12.5406Z" fill="#11397E"/>
<path d="M1 11.7474C1 12.2997 1.44772 12.7474 2 12.7474C2.55228 12.7474 3 12.2997 3 11.7474C3 11.1951 2.55228 10.7474 2 10.7474C1.44772 10.7474 1 11.1951 1 11.7474Z" fill="#11397E"/>
<path d="M3.75 11.7474C3.75 11.8855 3.86193 11.9974 4 11.9974H5C5.13807 11.9974 5.25 11.8855 5.25 11.7474C5.25 11.6093 5.13807 11.4974 5 11.4974H4C3.86193 11.4974 3.75 11.6093 3.75 11.7474Z" fill="#11397E"/>
<path d="M6.25 11.7474C6.25 11.8855 6.36193 11.9974 6.5 11.9974H7.5C7.63807 11.9974 7.75 11.8855 7.75 11.7474C7.75 11.6093 7.63807 11.4974 7.5 11.4974H6.5C6.36193 11.4974 6.25 11.6093 6.25 11.7474Z" fill="#11397E"/>
<path d="M8.75 11.7474C8.75 11.8855 8.86193 11.9974 9 11.9974H10C10.1381 11.9974 10.25 11.8855 10.25 11.7474C10.25 11.6093 10.1381 11.4974 10 11.4974H9C8.86193 11.4974 8.75 11.6093 8.75 11.7474Z" fill="#11397E"/>
<path d="M11.25 11.7474C11.25 11.8855 11.3619 11.9974 11.5 11.9974H12.5C12.6381 11.9974 12.75 11.8855 12.75 11.7474C12.75 11.6093 12.6381 11.4974 12.5 11.4974H11.5C11.3619 11.4974 11.25 11.6093 11.25 11.7474Z" fill="#11397E"/>
<path d="M13.75 11.7474C13.75 11.8855 13.8619 11.9974 14 11.9974H15C15.1381 11.9974 15.25 11.8855 15.25 11.7474C15.25 11.6093 15.1381 11.4974 15 11.4974H14C13.8619 11.4974 13.75 11.6093 13.75 11.7474Z" fill="#11397E"/>
</svg>
