<svg width="24" height="24" viewBox="0 0 24 24" fill="none" xmlns="http://www.w3.org/2000/svg">
<path fill-rule="evenodd" clip-rule="evenodd" d="M23.8216 8.00487C23.8259 8.43941 22.68 8.79669 22.2407 8.79328C22.2089 8.79166 22.1771 8.79005 22.1328 8.78151L21.3642 8.72361L19.9178 11.5394C19.8692 11.6565 19.8409 11.7369 19.7263 11.7374L19.3313 11.7425C19.0702 11.7419 19.0973 11.6929 19.1277 11.5497L19.6847 9.04121L19.6737 8.61891L19.2797 8.59262C18.8018 8.59983 18.2136 8.48185 17.74 8.36339L17.0755 9.35568C16.968 9.52018 16.9987 9.55321 16.8841 9.55368C16.623 9.55302 16.6684 9.53014 16.6805 9.36081L16.861 8.18029C16.8563 8.12969 16.871 8.07379 16.9039 8.04398C16.8981 8.02481 16.8731 8.01095 16.8799 7.9987C16.8742 7.97953 16.9003 7.96197 16.9332 7.93217C16.8832 7.90445 16.866 7.84693 16.8614 7.79634L16.6468 6.62094C16.6272 6.44999 16.5897 6.4292 16.8383 6.42294C16.9529 6.42246 16.9326 6.4592 17.0418 6.61582L17.7522 7.63383C18.2151 7.50626 18.7916 7.40963 19.2627 7.41466L19.652 7.39036L19.641 6.96806L19.0072 4.45582C18.974 4.30936 18.9376 4.25715 19.1987 4.25781L19.5937 4.25269C19.7083 4.25221 19.7312 4.32891 19.7905 4.45781L21.3375 7.2682L22.1037 7.21267C22.148 7.22121 22.1865 7.21058 22.2183 7.21219C22.6576 7.21561 23.8174 7.57033 23.8216 8.00487ZM0.175981 15.7463C0.186899 15.3119 1.34451 14.9949 1.78345 15.0136C1.81516 15.0163 1.84688 15.019 1.89084 15.0291L2.65699 15.1138L4.20081 12.3502C4.25345 12.2348 4.28446 12.1555 4.39906 12.159L4.79404 12.1677C5.05495 12.1774 5.02611 12.2254 4.99075 12.3675L4.34651 14.855L4.3428 15.2774L4.7356 15.3175C5.21346 15.3269 5.79724 15.4654 6.26642 15.6003L6.96507 14.6318C7.07827 14.4712 7.04873 14.4371 7.16333 14.4406C7.42424 14.4504 7.37811 14.4717 7.36005 14.6405L7.13849 15.814C7.14136 15.8647 7.12477 15.92 7.09088 15.9487C7.09592 15.968 7.12042 15.9828 7.11321 15.9948C7.11825 16.0141 7.09158 16.0308 7.0577 16.0594C7.1067 16.0889 7.12183 16.1469 7.1247 16.1977L7.29811 17.3798C7.31176 17.5514 7.34851 17.5734 7.09985 17.571C6.98525 17.5675 7.00688 17.5315 6.90314 17.3712L6.22876 16.329C5.76168 16.4403 5.18218 16.5168 4.71153 16.4953L4.32159 16.506L4.31789 16.9284L4.8636 19.4613C4.89167 19.6088 4.92625 19.6622 4.66534 19.6525L4.27037 19.6438C4.15577 19.6403 4.13561 19.5628 4.08086 19.4319L2.63284 16.5693L1.86523 16.598C1.82126 16.5879 1.78234 16.5972 1.75063 16.5945C1.31169 16.5757 0.165062 16.1808 0.175981 15.7463ZM1.99996 9.0001C1.44768 9.0001 0.999964 8.55238 0.999964 8.0001C0.999964 7.44781 1.44768 7.0001 1.99996 7.0001C2.55225 7.0001 2.99996 7.44781 2.99996 8.0001C2.99996 8.55238 2.55225 9.0001 1.99996 9.0001ZM3.99996 8.2501C3.86189 8.2501 3.74996 8.13817 3.74996 8.0001C3.74996 7.86202 3.86189 7.7501 3.99996 7.7501H4.99996C5.13803 7.7501 5.24996 7.86202 5.24996 8.0001C5.24996 8.13817 5.13803 8.2501 4.99996 8.2501H3.99996ZM6.49996 8.2501C6.36189 8.2501 6.24996 8.13817 6.24996 8.0001C6.24996 7.86202 6.36189 7.7501 6.49996 7.7501H7.49996C7.63803 7.7501 7.74996 7.86202 7.74996 8.0001C7.74996 8.13817 7.63803 8.2501 7.49996 8.2501H6.49996ZM8.99996 8.2501C8.86189 8.2501 8.74996 8.13817 8.74996 8.0001C8.74996 7.86202 8.86189 7.7501 8.99996 7.7501H9.99996C10.138 7.7501 10.25 7.86202 10.25 8.0001C10.25 8.13817 10.138 8.2501 9.99996 8.2501H8.99996ZM11.5 8.2501C11.3619 8.2501 11.25 8.13817 11.25 8.0001C11.25 7.86202 11.3619 7.7501 11.5 7.7501H12.5C12.638 7.7501 12.75 7.86202 12.75 8.0001C12.75 8.13817 12.638 8.2501 12.5 8.2501H11.5ZM14 8.2501C13.8619 8.2501 13.75 8.13817 13.75 8.0001C13.75 7.86202 13.8619 7.7501 14 7.7501H15C15.138 7.7501 15.25 7.86202 15.25 8.0001C15.25 8.13817 15.138 8.2501 15 8.2501H14ZM22 17.0109C21.4477 17.0109 21 16.5632 21 16.0109C21 15.4586 21.4477 15.0109 22 15.0109C22.5522 15.0109 23 15.4586 23 16.0109C23 16.5632 22.5522 17.0109 22 17.0109ZM19.2552 16.2609H18.2552C18.1171 16.2609 18.0052 16.149 18.0052 16.0109C18.0052 15.8728 18.1171 15.7609 18.2552 15.7609H19.2552C19.3933 15.7609 19.5052 15.8728 19.5052 16.0109C19.5052 16.149 19.3933 16.2609 19.2552 16.2609ZM16.7552 16.2609H15.7552C15.6171 16.2609 15.5052 16.149 15.5052 16.0109C15.5052 15.8728 15.6171 15.7609 15.7552 15.7609H16.7552C16.8933 15.7609 17.0052 15.8728 17.0052 16.0109C17.0052 16.149 16.8933 16.2609 16.7552 16.2609ZM14.2552 16.2609H13.2552C13.1171 16.2609 13.0052 16.149 13.0052 16.0109C13.0052 15.8728 13.1171 15.7609 13.2552 15.7609H14.2552C14.3933 15.7609 14.5052 15.8728 14.5052 16.0109C14.5052 16.149 14.3933 16.2609 14.2552 16.2609ZM11.7552 16.2609H10.7552C10.6171 16.2609 10.5052 16.149 10.5052 16.0109C10.5052 15.8728 10.6171 15.7609 10.7552 15.7609H11.7552C11.8933 15.7609 12.0052 15.8728 12.0052 16.0109C12.0052 16.149 11.8933 16.2609 11.7552 16.2609ZM9.25521 16.2609H8.25521C8.11713 16.2609 8.00521 16.149 8.00521 16.0109C8.00521 15.8728 8.11713 15.7609 8.25521 15.7609H9.25521C9.39328 15.7609 9.50521 15.8728 9.50521 16.0109C9.50521 16.149 9.39328 16.2609 9.25521 16.2609Z" fill="#11397E"/>
</svg>
